<?xml version="1.0" standalone="no"?>
<!DOCTYPE svg PUBLIC "-//W3C//DTD SVG 20010904//EN"
 "http://www.w3.org/TR/2001/REC-SVG-20010904/DTD/svg10.dtd">
<svg version="1.0" xmlns="http://www.w3.org/2000/svg"
 width="72.000000pt" height="72.000000pt" viewBox="0 0 72.000000 72.000000"
 preserveAspectRatio="xMidYMid meet">

<g transform="translate(0.000000,72.000000) scale(0.100000,-0.100000)"
fill="#000000" stroke="none">
<path d="M233 573 l-123 -74 0 -143 0 -142 122 -69 c67 -37 127 -68 133 -68
16 0 135 74 135 84 0 16 -83 69 -108 69 -26 0 -26 -1 -7 125 6 35 2 28 -39
-67 -21 -49 -29 -58 -50 -58 -24 0 -25 2 -28 77 l-3 77 -26 -74 c-17 -47 -32
-76 -43 -78 -23 -5 -21 3 28 140 25 67 43 125 40 128 -12 12 -44 -44 -44 -77
0 -28 -3 -34 -16 -29 -9 3 -18 6 -20 6 -2 0 -4 13 -4 29 0 40 43 88 90 102 67
20 72 13 64 -93 -4 -51 -4 -91 -1 -88 3 3 21 43 40 90 33 79 38 85 66 88 37 4
37 1 16 -138 -21 -138 -22 -133 33 -158 46 -22 69 -27 105 -24 15 2 17 16 17
150 l0 148 -67 37 c-38 20 -95 52 -128 71 l-60 33 -122 -74z"/>
</g>
</svg>
