<svg width="15" height="15" viewBox="0 0 15 15" fill="none" xmlns="http://www.w3.org/2000/svg">
<g clip-path="url(#clip0_35_11)">
<path d="M11.2805 2.53369C10.8195 2.53369 10.4507 2.90653 10.4507 3.36356C10.4507 3.82058 10.8235 4.19342 11.2805 4.19342C11.7376 4.19342 12.1104 3.82058 12.1104 3.36356C12.1104 2.90653 11.7376 2.53369 11.2805 2.53369Z" fill="white"/>
<path d="M7.58462 3.6001C5.6603 3.6001 4.09277 5.16762 4.09277 7.09194C4.09277 9.01627 5.6603 10.5838 7.58462 10.5838C9.50894 10.5838 11.0765 9.01627 11.0765 7.09194C11.0765 5.16762 9.50894 3.6001 7.58462 3.6001ZM7.58462 9.32897C6.34985 9.32897 5.34759 8.32672 5.34759 7.09194C5.34759 5.85717 6.34985 4.85492 7.58462 4.85492C8.81939 4.85492 9.82165 5.85717 9.82165 7.09194C9.82165 8.32672 8.81939 9.32897 7.58462 9.32897Z" fill="white"/>
<path d="M10.3548 14.1839H4.69004C2.34076 14.1839 0.428467 12.2716 0.428467 9.9223V4.25757C0.432476 1.9123 2.34477 0 4.69405 0H10.3588C12.7081 0 14.6204 1.9123 14.6204 4.26158V9.92631C14.6204 12.2756 12.7081 14.1879 10.3588 14.1879L10.3548 14.1839ZM4.69405 1.335C3.08243 1.335 1.76748 2.64595 1.76748 4.26158V9.92631C1.76748 11.5379 3.07842 12.8529 4.69405 12.8529H10.3588C11.9704 12.8529 13.2854 11.5419 13.2854 9.92631V4.26158C13.2854 2.64995 11.9744 1.335 10.3588 1.335H4.69405Z" fill="white"/>
</g>
<defs>
<clipPath id="clip0_35_11">
<rect width="14.1839" height="14.1839" fill="white" transform="translate(0.432373)"/>
</clipPath>
</defs>
</svg>
